<svg xmlns="http://www.w3.org/2000/svg" style="display: none;">
  <defs>
    <!-- Icon 1: activities -->
    <symbol id="icon1:activities" viewBox="0 0 1024 1280">
      <g>
        <path d="M352.8,509.3c-88.3,0-160.1-71.8-160.1-160.1s71.8-160.1,160.1-160.1s160.1,71.8,160.1,160.1S441.1,509.3,352.8,509.3z M352.8,219.1c-71.7,0-130.1,58.4-130.1,130.1s58.4,130.1,130.1,130.1s130.1-58.4,130.1-130.1S424.5,219.1,352.8,219.1z"/>
        <!-- ... other paths ... -->
      </g>
    </symbol>
    <!-- Icon 2: location -->
    <symbol id="icon2:location" viewBox="0 0 1024 1280">
      <g>
        <g transform="translate(0.868 0.499)">
          <path d="M508.5,942.8c-0.4,0-0.9,0-1.3,0c-46.1-0.1-91.6-7.6-135.2-22.2..."/>
          <!-- ... other paths and shapes ... -->
        </g>
      </g>
    </symbol>
    <!-- Icon 3: money-->
    <symbol id="icon3:money" viewBox="0 0 1024 1280">
      <g>
        <path d="M511.8,938c-57.5,0-113.3-11.3-165.8-33.5c-50.7-21.5-96.3-52.2-135.4-91.3..."/>
        <!-- ... other paths and shapes ... -->
      </g>
    </symbol>
    <!-- Icon 4: time -->
    <symbol id="icon4:time" viewBox="0 0 1024 1280">
      <g>
        <rect x="85.4" y="461.2" transform="matrix(0.7955 0.6059 -0.6059 0.7955 326.5837 -15.428)" width="201.5" height="30"/>
        <!-- ... other shapes ... -->
      </g>
    </symbol>
    <!-- Additional icons would follow the same pattern -->
  </defs>
</svg>
