<svg xmlns="http://www.w3.org/2000/svg" style="display: none;">
  <defs>
    <!-- Icon 1: activities -->
    <symbol id="icon1:activities" viewBox="0 0 1024 1280">
      <g>
        xmlns="http://www.w3.org/2000/svg" xmlns:xlink="http://www.w3.org/1999/xlink" version="1.1" x="0px" y="0px" viewBox="0 0 1024 1280" style="enable-background:new 0 0 1024 1024;" xml:space="preserve"><g><path d="M352.8,509.3c-88.3,0-160.1-71.8-160.1-160.1s71.8-160.1,160.1-160.1s160.1,71.8,160.1,160.1S441.1,509.3,352.8,509.3z    M352.8,219.1c-71.7,0-130.1,58.4-130.1,130.1s58.4,130.1,130.1,130.1s130.1-58.4,130.1-130.1S424.5,219.1,352.8,219.1z"/><path d="M558,835.1H147.7c-39.4,0-72.7-33.2-72.7-72.6V642.8c0-65.9,33.5-126.8,89.5-162.9l16.2,25.2   c-47.4,30.5-75.7,82-75.7,137.7v119.7c0,22.7,20,42.6,42.7,42.6H558c22.1,0,40-19.1,40-42.6V642.9c0-56.8-28.4-108.6-75.9-138.5   l16-25.4c56.3,35.4,89.9,96.7,89.9,163.9v119.6C628,802.5,596.6,835.1,558,835.1z"/><path d="M765.2,586.7c-60.4,0-109.5-49.1-109.5-109.5c0-60.4,49.1-109.5,109.5-109.5s109.5,49.1,109.5,109.5   C874.7,537.6,825.6,586.7,765.2,586.7z M765.2,397.7c-43.8,0-79.5,35.7-79.5,79.5c0,43.8,35.7,79.5,79.5,79.5s79.5-35.7,79.5-79.5   C844.7,433.4,809,397.7,765.2,397.7z"/><path d="M898.9,799.1H694v-30h204.9c11.1,0,20.1-10.2,20.1-22.7v-77.9c0-34.9-17.5-66.8-46.7-85.2l16-25.4   c38,23.9,60.7,65.3,60.7,110.6v77.9C949,775.5,926.5,799.1,898.9,799.1z"/></g><text x="0" y="1039" fill="#000000" font-size="5px" font-weight="bold" font-family="'Helvetica Neue', Helvetica, Arial-Unicode, Arial, Sans-serif">Created by IconPai</text><text x="0" y="1044" fill="#000000" font-size="5px" font-weight="bold" font-family="'Helvetica Neue', Helvetica, Arial-Unicode, Arial, Sans-serif">from the Noun Project</text>
      </g>
    </symbol>
    <!-- Icon 2: location -->
    <symbol id="icon2:location" viewBox="0 0 1024 1280">
      <g>
        xmlns="http://www.w3.org/2000/svg" xmlns:xlink="http://www.w3.org/1999/xlink" version="1.1" x="0px" y="0px" viewBox="0 0 1024 1280" style="enable-background:new 0 0 1024 1024;" xml:space="preserve"><g><g transform="translate(0.868 0.499)"><path d="M508.5,942.8c-0.4,0-0.9,0-1.3,0c-46.1-0.1-91.6-7.6-135.2-22.2c-42.6-14.2-82.6-34.9-118.9-61.6    c-36.3-26.6-68-58.6-94.4-95c-26.9-37.2-47.6-78.3-61.6-122.2c-0.1-0.3-0.2-0.5-0.2-0.7C80.7,589.7,74.4,536.3,78,482.6    c0.1-1.3,0.2-2.7,0.3-4.1c0.6-8.2,1.5-16.5,2.6-24.6c1.1-8.1,2.4-16.3,4-24.4c9.6-49.7,27.6-96.8,53.5-140    c25.2-42,57.2-79.2,95-110.6c37.9-31.3,80.4-55.8,126.4-72.7C407,88.9,456.6,80,507.2,79.8c0.9,0,1.7,0,2.6,0    C556,80,601.5,87.5,645.1,102c42.6,14.2,82.7,35,119,61.7c36.3,26.7,68,58.7,94.4,95.1c26.9,37.2,47.6,78.4,61.5,122.3l0,0    l0.2,0.6c26.6,84.9,26.6,174.5-0.1,259.4c0,0.1-0.1,0.3-0.1,0.4c-13.9,44-34.7,85.2-61.6,122.4c-26.3,36.4-58.1,68.4-94.4,95    c-36.3,26.6-76.3,47.4-118.9,61.6c-43.6,14.6-89.1,22-135.2,22.2C509.4,942.8,508.9,942.8,508.5,942.8z M125.5,632l0.2,0.5    c53,167.1,206.4,279.8,381.7,280.3l0.1,0c0.7,0,1.3,0,2,0l0.1,0c175.3-0.5,328.7-113.2,381.7-280.3c0-0.1,0.1-0.3,0.1-0.4    c24.8-78.9,24.8-162.2,0.2-241.1c-0.1-0.3-0.2-0.5-0.2-0.7c-52.9-167.3-206.3-280-381.8-280.5l-0.1,0c-0.7,0-1.3,0-2,0l-0.1,0    c-191.5,0.5-356.8,137.4-393.1,325.4c-1.4,7.5-2.7,15.1-3.7,22.7c-1,7.6-1.8,15.3-2.4,22.9c-0.1,1.2-0.2,2.5-0.3,3.8    C104.5,534.6,110.5,584.2,125.5,632z"/><rect x="111" y="372" width="794" height="30"/><rect x="111" y="622" width="794" height="30"/><path d="M508.5,942.8c-0.2,0-0.5,0-0.7,0c-49.8-0.5-95.5-47.2-128.5-131.5c-19.2-49-33-107-41.1-172.3c0-0.2,0-0.3-0.1-0.5    c-3-24.3-5.1-49.5-6.4-74.9c-1.3-26.6-1.6-53.7-0.9-80.4l0.1-4c0.2-8,0.6-16.1,1-24.1c0.4-8,0.9-16,1.5-23.9    c1.2-15.8,2.8-31.7,4.7-47.1c8.1-65.5,21.9-123.6,41.1-172.8c33-84.4,78.6-131.1,128.5-131.5c0.5,0,1,0,1.5,0    c49.8,0.5,95.5,47.2,128.5,131.5c19.2,49.1,33.1,107.3,41.1,172.8l0,0.4c10.1,84.3,10.1,169.7,0,254l0,0c0,0,0,0,0,0l0,0.4    c-8.1,65.4-21.9,123.4-41.1,172.4c-33,84.4-78.6,131.1-128.5,131.5C509,942.8,508.7,942.8,508.5,942.8z M368,635l0,0.2    c7.6,62,21.2,119.1,39.2,165.2c27.9,71.2,64.6,112.2,100.9,112.5l0.4,0l0.4,0c36.3-0.3,73-41.2,100.9-112.5    c18-46.1,31.6-103.2,39.2-165.2l0-0.3c9.9-81.9,9.9-164.9,0.1-246.7c0-0.1,0-0.3-0.1-0.4c-7.6-62.1-21.2-119.4-39.3-165.5    c-27.9-71.2-64.6-112.2-100.9-112.4l-0.4,0l-0.4,0c-36.3,0.3-73.1,41.2-100.9,112.4c-18.1,46.2-31.6,103.4-39.3,165.5    c-1.8,15-3.4,30.4-4.5,45.7c-0.6,7.7-1.1,15.5-1.5,23.2c-0.4,7.7-0.7,15.6-1,23.4l-0.1,3.9c-0.7,26-0.4,52.3,0.9,78.2    C362.9,586.8,365,611.3,368,635L368,635z"/></g></g><text x="0" y="1039" fill="#000000" font-size="5px" font-weight="bold" font-family="'Helvetica Neue', Helvetica, Arial-Unicode, Arial, Sans-serif">Created by IconPai</text><text x="0" y="1044" fill="#000000" font-size="5px" font-weight="bold" font-family="'Helvetica Neue', Helvetica, Arial-Unicode, Arial, Sans-serif">from the Noun Project</text>
      </g>
    </symbol>
    <!-- Icon 3: money-->
    <symbol id="icon3:money" viewBox="0 0 1024 1280">
      <g>
        xmlns="http://www.w3.org/2000/svg" xmlns:xlink="http://www.w3.org/1999/xlink" version="1.1" x="0px" y="0px" viewBox="0 0 1024 1280" style="enable-background:new 0 0 1024 1024;" xml:space="preserve"><g><rect x="85.4" y="461.2" transform="matrix(0.7955 0.6059 -0.6059 0.7955 326.5837 -15.428)" width="201.5" height="30"/><rect x="822.9" y="375.4" transform="matrix(0.6059 0.7955 -0.7955 0.6059 708.9559 -478.8881)" width="30" height="201.5"/><rect x="582.4" y="759.8" transform="matrix(0.6919 0.7219 -0.7219 0.6919 799.8752 -324.9818)" width="396.7" height="30"/><rect x="228.3" y="576.4" transform="matrix(0.722 0.6919 -0.6919 0.722 603.7501 47.1152)" width="30" height="396.7"/><polygon points="933,933 91,933 91,407.7 257.2,281.1 275.4,304.9 121,422.5 121,903 903,903 903,422.5 748.6,304.9 766.8,281.1    933,407.7  "/><path d="M512,743.1L251.3,544.6V191.9c0-22.6,18.3-40.9,40.9-40.9h439.4c22.7,0,41.1,18.3,41.1,40.9v352.7L512,743.1z M281.3,529.8   L512,705.3l230.7-175.6V191.9c0-6-5-10.9-11.1-10.9H292.2c-6,0-10.9,4.9-10.9,10.9V529.8z"/><polygon points="581.7,177.9 512,124.9 442.3,177.9 424.1,154.1 512,87.1 599.9,154.1  "/><path d="M527.9,556.8h-90.5v-30h90.5c24.1,0,43.7-19.6,43.7-43.6s-19.6-43.6-43.7-43.6h-31.8c-40.6,0-73.7-33-73.7-73.6   c0-40.6,33.1-73.6,73.7-73.6h90.5v30h-90.5c-24.1,0-43.7,19.6-43.7,43.6s19.6,43.6,43.7,43.6h31.8c40.6,0,73.7,33,73.7,73.6   C601.6,523.8,568.5,556.8,527.9,556.8z"/><rect x="497" y="541.7" width="30" height="58.6"/><rect x="497" y="248.8" width="30" height="58.6"/></g><text x="0" y="1039" fill="#000000" font-size="5px" font-weight="bold" font-family="'Helvetica Neue', Helvetica, Arial-Unicode, Arial, Sans-serif">Created by IconPai</text><text x="0" y="1044" fill="#000000" font-size="5px" font-weight="bold" font-family="'Helvetica Neue', Helvetica, Arial-Unicode, Arial, Sans-serif">from the Noun Project</text>
      </g>
    </symbol>
    <!-- Icon 4: time -->
    <symbol id="icon4:time" viewBox="0 0 1024 1280">
      <g>
        xmlns="http://www.w3.org/2000/svg" xmlns:xlink="http://www.w3.org/1999/xlink" version="1.1" x="0px" y="0px" viewBox="0 0 1024 1280" style="enable-background:new 0 0 1024 1024;" xml:space="preserve"><g><path d="M511.8,938c-57.5,0-113.3-11.3-165.8-33.5c-50.7-21.5-96.3-52.2-135.4-91.3c-39.1-39.1-69.8-84.7-91.3-135.4   c-22.2-52.5-33.5-108.3-33.5-165.8c0-57.5,11.2-113.3,33.3-165.8c21.4-50.7,52-96.3,91-135.4c39-39.1,84.5-69.8,135.1-91.3   C397.8,97.3,453.6,86,511.1,86c235.4,0,427,191.1,427,425.9c0,57.5-11.3,113.3-33.5,165.8c-21.5,50.7-52.2,96.3-91.4,135.4   s-84.7,69.9-135.5,91.3C625.1,926.7,569.3,938,511.8,938z M511.1,116c-217.9,0-395.2,177.6-395.2,395.9   c0,218.4,177.6,396.1,395.9,396.1c218.5,0,396.3-177.7,396.3-396.1C908.1,293.6,730,116,511.1,116z"/><polygon points="697.8,719.4 496,518.1 496,287 526,287 526,505.7 719,698.2  "/><rect x="496" y="101" width="30" height="73"/><rect x="497" y="850" width="30" height="73"/><rect x="101" y="497" width="73" height="30"/><rect x="850" y="497" width="73" height="30"/></g><text x="0" y="1039" fill="#000000" font-size="5px" font-weight="bold" font-family="'Helvetica Neue', Helvetica, Arial-Unicode, Arial, Sans-serif">Created by IconPai</text><text x="0" y="1044" fill="#000000" font-size="5px" font-weight="bold" font-family="'Helvetica Neue', Helvetica, Arial-Unicode, Arial, Sans-serif">from the Noun Project</text>
      </g>
    </symbol>
    <!-- Additional icons would follow the same pattern -->
  </defs>
</svg>
