<svg xmlns="http://www.w3.org/2000/svg" xmlns:xlink="http://www.w3.org/1999/xlink" version="1.1" x="0px" y="0px" viewBox="0 0 1024 1280" style="enable-background:new 0 0 1024 1024;" xml:space="preserve"><g><path d="M352.8,509.3c-88.3,0-160.1-71.8-160.1-160.1s71.8-160.1,160.1-160.1s160.1,71.8,160.1,160.1S441.1,509.3,352.8,509.3z    M352.8,219.1c-71.7,0-130.1,58.4-130.1,130.1s58.4,130.1,130.1,130.1s130.1-58.4,130.1-130.1S424.5,219.1,352.8,219.1z"/><path d="M558,835.1H147.7c-39.4,0-72.7-33.2-72.7-72.6V642.8c0-65.9,33.5-126.8,89.5-162.9l16.2,25.2   c-47.4,30.5-75.7,82-75.7,137.7v119.7c0,22.7,20,42.6,42.7,42.6H558c22.1,0,40-19.1,40-42.6V642.9c0-56.8-28.4-108.6-75.9-138.5   l16-25.4c56.3,35.4,89.9,96.7,89.9,163.9v119.6C628,802.5,596.6,835.1,558,835.1z"/><path d="M765.2,586.7c-60.4,0-109.5-49.1-109.5-109.5c0-60.4,49.1-109.5,109.5-109.5s109.5,49.1,109.5,109.5   C874.7,537.6,825.6,586.7,765.2,586.7z M765.2,397.7c-43.8,0-79.5,35.7-79.5,79.5c0,43.8,35.7,79.5,79.5,79.5s79.5-35.7,79.5-79.5   C844.7,433.4,809,397.7,765.2,397.7z"/><path d="M898.9,799.1H694v-30h204.9c11.1,0,20.1-10.2,20.1-22.7v-77.9c0-34.9-17.5-66.8-46.7-85.2l16-25.4   c38,23.9,60.7,65.3,60.7,110.6v77.9C949,775.5,926.5,799.1,898.9,799.1z"/></g><text x="0" y="1039" fill="#000000" font-size="5px" font-weight="bold" font-family="'Helvetica Neue', Helvetica, Arial-Unicode, Arial, Sans-serif">Created by IconPai</text><text x="0" y="1044" fill="#000000" font-size="5px" font-weight="bold" font-family="'Helvetica Neue', Helvetica, Arial-Unicode, Arial, Sans-serif">from the Noun Project</text></svg>