<svg xmlns="http://www.w3.org/2000/svg" xmlns:xlink="http://www.w3.org/1999/xlink" version="1.1" x="0px" y="0px" viewBox="0 0 1024 1280" style="enable-background:new 0 0 1024 1024;" xml:space="preserve"><g><g transform="translate(0.868 0.499)"><path d="M508.5,942.8c-0.4,0-0.9,0-1.3,0c-46.1-0.1-91.6-7.6-135.2-22.2c-42.6-14.2-82.6-34.9-118.9-61.6    c-36.3-26.6-68-58.6-94.4-95c-26.9-37.2-47.6-78.3-61.6-122.2c-0.1-0.3-0.2-0.5-0.2-0.7C80.7,589.7,74.4,536.3,78,482.6    c0.1-1.3,0.2-2.7,0.3-4.1c0.6-8.2,1.5-16.5,2.6-24.6c1.1-8.1,2.4-16.3,4-24.4c9.6-49.7,27.6-96.8,53.5-140    c25.2-42,57.2-79.2,95-110.6c37.9-31.3,80.4-55.8,126.4-72.7C407,88.9,456.6,80,507.2,79.8c0.9,0,1.7,0,2.6,0    C556,80,601.5,87.5,645.1,102c42.6,14.2,82.7,35,119,61.7c36.3,26.7,68,58.7,94.4,95.1c26.9,37.2,47.6,78.4,61.5,122.3l0,0    l0.2,0.6c26.6,84.9,26.6,174.5-0.1,259.4c0,0.1-0.1,0.3-0.1,0.4c-13.9,44-34.7,85.2-61.6,122.4c-26.3,36.4-58.1,68.4-94.4,95    c-36.3,26.6-76.3,47.4-118.9,61.6c-43.6,14.6-89.1,22-135.2,22.2C509.4,942.8,508.9,942.8,508.5,942.8z M125.5,632l0.2,0.5    c53,167.1,206.4,279.8,381.7,280.3l0.1,0c0.7,0,1.3,0,2,0l0.1,0c175.3-0.5,328.7-113.2,381.7-280.3c0-0.1,0.1-0.3,0.1-0.4    c24.8-78.9,24.8-162.2,0.2-241.1c-0.1-0.3-0.2-0.5-0.2-0.7c-52.9-167.3-206.3-280-381.8-280.5l-0.1,0c-0.7,0-1.3,0-2,0l-0.1,0    c-191.5,0.5-356.8,137.4-393.1,325.4c-1.4,7.5-2.7,15.1-3.7,22.7c-1,7.6-1.8,15.3-2.4,22.9c-0.1,1.2-0.2,2.5-0.3,3.8    C104.5,534.6,110.5,584.2,125.5,632z"/><rect x="111" y="372" width="794" height="30"/><rect x="111" y="622" width="794" height="30"/><path d="M508.5,942.8c-0.2,0-0.5,0-0.7,0c-49.8-0.5-95.5-47.2-128.5-131.5c-19.2-49-33-107-41.1-172.3c0-0.2,0-0.3-0.1-0.5    c-3-24.3-5.1-49.5-6.4-74.9c-1.3-26.6-1.6-53.7-0.9-80.4l0.1-4c0.2-8,0.6-16.1,1-24.1c0.4-8,0.9-16,1.5-23.9    c1.2-15.8,2.8-31.7,4.7-47.1c8.1-65.5,21.9-123.6,41.1-172.8c33-84.4,78.6-131.1,128.5-131.5c0.5,0,1,0,1.5,0    c49.8,0.5,95.5,47.2,128.5,131.5c19.2,49.1,33.1,107.3,41.1,172.8l0,0.4c10.1,84.3,10.1,169.7,0,254l0,0c0,0,0,0,0,0l0,0.4    c-8.1,65.4-21.9,123.4-41.1,172.4c-33,84.4-78.6,131.1-128.5,131.5C509,942.8,508.7,942.8,508.5,942.8z M368,635l0,0.2    c7.6,62,21.2,119.1,39.2,165.2c27.9,71.2,64.6,112.2,100.9,112.5l0.4,0l0.4,0c36.3-0.3,73-41.2,100.9-112.5    c18-46.1,31.6-103.2,39.2-165.2l0-0.3c9.9-81.9,9.9-164.9,0.1-246.7c0-0.1,0-0.3-0.1-0.4c-7.6-62.1-21.2-119.4-39.3-165.5    c-27.9-71.2-64.6-112.2-100.9-112.4l-0.4,0l-0.4,0c-36.3,0.3-73.1,41.2-100.9,112.4c-18.1,46.2-31.6,103.4-39.3,165.5    c-1.8,15-3.4,30.4-4.5,45.7c-0.6,7.7-1.1,15.5-1.5,23.2c-0.4,7.7-0.7,15.6-1,23.4l-0.1,3.9c-0.7,26-0.4,52.3,0.9,78.2    C362.9,586.8,365,611.3,368,635L368,635z"/></g></g><text x="0" y="1039" fill="#000000" font-size="5px" font-weight="bold" font-family="'Helvetica Neue', Helvetica, Arial-Unicode, Arial, Sans-serif">Created by IconPai</text><text x="0" y="1044" fill="#000000" font-size="5px" font-weight="bold" font-family="'Helvetica Neue', Helvetica, Arial-Unicode, Arial, Sans-serif">from the Noun Project</text></svg>