<svg xmlns="http://www.w3.org/2000/svg" xmlns:xlink="http://www.w3.org/1999/xlink" version="1.1" x="0px" y="0px" viewBox="0 0 1024 1280" style="enable-background:new 0 0 1024 1024;" xml:space="preserve"><g><rect x="85.4" y="461.2" transform="matrix(0.7955 0.6059 -0.6059 0.7955 326.5837 -15.428)" width="201.5" height="30"/><rect x="822.9" y="375.4" transform="matrix(0.6059 0.7955 -0.7955 0.6059 708.9559 -478.8881)" width="30" height="201.5"/><rect x="582.4" y="759.8" transform="matrix(0.6919 0.7219 -0.7219 0.6919 799.8752 -324.9818)" width="396.7" height="30"/><rect x="228.3" y="576.4" transform="matrix(0.722 0.6919 -0.6919 0.722 603.7501 47.1152)" width="30" height="396.7"/><polygon points="933,933 91,933 91,407.7 257.2,281.1 275.4,304.9 121,422.5 121,903 903,903 903,422.5 748.6,304.9 766.8,281.1    933,407.7  "/><path d="M512,743.1L251.3,544.6V191.9c0-22.6,18.3-40.9,40.9-40.9h439.4c22.7,0,41.1,18.3,41.1,40.9v352.7L512,743.1z M281.3,529.8   L512,705.3l230.7-175.6V191.9c0-6-5-10.9-11.1-10.9H292.2c-6,0-10.9,4.9-10.9,10.9V529.8z"/><polygon points="581.7,177.9 512,124.9 442.3,177.9 424.1,154.1 512,87.1 599.9,154.1  "/><path d="M527.9,556.8h-90.5v-30h90.5c24.1,0,43.7-19.6,43.7-43.6s-19.6-43.6-43.7-43.6h-31.8c-40.6,0-73.7-33-73.7-73.6   c0-40.6,33.1-73.6,73.7-73.6h90.5v30h-90.5c-24.1,0-43.7,19.6-43.7,43.6s19.6,43.6,43.7,43.6h31.8c40.6,0,73.7,33,73.7,73.6   C601.6,523.8,568.5,556.8,527.9,556.8z"/><rect x="497" y="541.7" width="30" height="58.6"/><rect x="497" y="248.8" width="30" height="58.6"/></g><text x="0" y="1039" fill="#000000" font-size="5px" font-weight="bold" font-family="'Helvetica Neue', Helvetica, Arial-Unicode, Arial, Sans-serif">Created by IconPai</text><text x="0" y="1044" fill="#000000" font-size="5px" font-weight="bold" font-family="'Helvetica Neue', Helvetica, Arial-Unicode, Arial, Sans-serif">from the Noun Project</text></svg>